# AST/ASF file generated using VICON BodyLanguage
# -----------------------------------------------
:version 1.10
:name VICON
:units
  mass 1.0
  length 0.45
  angle deg
:documentation
   .ast/.asf automatically generated from VICON data using
   VICON BodyBuilder and BodyLanguage model FoxedUp or BRILLIANT.MOD
:root
   order TX TY TZ RX RY RZ
   axis XYZ
   position 0 0 0  
   orientation 0 0 0 
:bonedata
  begin
     id 1 
     name lhipjoint
     direction 0.575328 -0.747301 0.332475 
     length 2.40933 
     axis 0 0 0  XYZ
  end
  begin
     id 2 
     name lfemur
     direction 0.34202 -0.939693 0  
     length 7.31453  
     axis 0 0 20  XYZ
    dof rx ry rz
    limits (-160.0 20.0)
           (-70.0 70.0)
           (-60.0 70.0)
  end
  begin
     id 3 
     name ltibia
     direction 0.34202 -0.939693 0   
     length 7.82185   
     axis 0 0 20   XYZ
    dof rx
    limits (-10.0 170.0)
  end
  begin
     id 4 
     name lfoot
     direction 0.0795993 -0.218697 0.972541   
     length 2.19173   
     axis -90 7.62852e-016 20   XYZ
    dof rx rz
    limits (-45.0 90.0)
           (-70.0 20.0)
  end
  begin
     id 5 
     name ltoes
     direction 1.53537e-011 -4.21894e-011 1   
     length 1.10023   
     axis -90 7.62852e-016 20   XYZ
    dof rx
    limits (-90.0 20.0)
  end
  begin
     id 6 
     name rhipjoint
     direction -0.513884 -0.783789 0.348708   
     length 2.29716  
     axis 0 0 0  XYZ 
  end
  begin
     id 7 
     name rfemur
     direction -0.34202 -0.939693 0   
     length 7.59573   
     axis 0 0 -20   XYZ
    dof rx ry rz
    limits (-160.0 20.0)
           (-70.0 70.0)
           (-70.0 60.0)
  end
  begin
     id 8 
     name rtibia
     direction -0.34202 -0.939693 0   
     length 7.66402   
     axis 0 0 -20   XYZ
    dof rx
    limits (-10.0 170.0)
 end
 begin
     id 9 
     name rfoot
     direction -0.137793 -0.378584 0.915253   
     length 2.27056  
     axis -90 -7.62852e-016 -20   XYZ
    dof rx rz
    limits (-45.0 90.0)
           (-20.0 70.0)
  end
  begin
     id 10 
     name rtoes
     direction -1.53493e-011 -4.22159e-011 1   
     length 1.11766   
     axis -90 -7.62852e-016 -20   XYZ
    dof rx
    limits (-90.0 20.0)
  end
  begin
     id 11 
     name lowerback
     direction -0.00732775 0.998356 -0.05685   
     length 2.16513   
     axis 0 0 0   XYZ
    dof rx ry rz
    limits (-20.0 45.0)
           (-30.0 30.0)
           (-30.0 30.0)
  end
  begin
     id 12 
     name upperback
     direction 0.0218081 0.999627 -0.0164647   
     length 2.16755   
     axis 0 0 0   XYZ
    dof rx ry rz
    limits (-20.0 45.0)
           (-30.0 30.0)
           (-30.0 30.0)
  end
  begin
     id 13 
     name thorax
     direction 0.02365 0.999661 0.0108914   
     length 2.16932   
     axis 0 0 0   XYZ
    dof rx ry rz
    limits (-20.0 45.0)
           (-30.0 30.0)
           (-30.0 30.0)
  end
  begin
     id 14 
     name lowerneck
     direction -0.0523929 0.978385 0.200044   
     length 1.63877   
     axis 0 0 0   XYZ
    dof rx ry rz
    limits (-20.0 45.0)
           (-30.0 30.0)
           (-30.0 30.0)
  end
  begin
     id 15 
     name upperneck
     direction 0.0448674 0.981321 -0.187074   
     length 1.69014   
     axis 0 0 0   XYZ
    dof rx ry rz
    limits (-20.0 45.0)
           (-30.0 30.0)
           (-30.0 30.0)
  end
  begin
     id 16
     name head
     direction 0.0199089 0.996118 -0.0857429  
     length 1.70094  
     axis 0 0 0   XYZ
    dof rx ry rz
    limits (-20.0 45.0)
           (-30.0 30.0)
           (-30.0 30.0)
  end
  begin
     id 17 
     name lclavicle
     direction 0.940366 0.30191 -0.156722  
     length 3.37521  
     axis 0 0 0   XYZ
    dof ry rz
    limits (-20.0 10.0)
           (0.0 20.0)
  end
  begin
     id 18 
     name lhumerus
     direction 1 -4.4897e-011 -1.7911e-027   
     length 5.25287   
     axis 180 -30 -90   XYZ
    dof rx ry rz
    limits (-60.0 90.0)
           (-90.0 90.0)
           (-90.0 90.0)
  end
  begin
     id 19
     name lradius
     direction 1 -4.48951e-011 1.04424e-027   
     length 3.51014   
     axis 180 -30 -90   XYZ
    dof rx
    limits (-10.0 170.0)
  end
  begin
     id 20
     name lwrist
     direction 1 -4.48997e-011 -9.5942e-028   
     length 1.75507   
     axis 8.48502e-016 90 90   XYZ
    dof ry
    limits (-180.0 0.0)
 end
  begin
     id 21 
     name lhand
     direction 1 -4.48831e-011 -1.90777e-027   
     length 0.706179   
     axis 1.22306e-015 90 90   XYZ
    dof rx rz
    limits (-90.0 90.0)
           (-45.0 45.0)
  end
  begin
     id 22 
     name lfingers
     direction 1 -4.49108e-011 -3.85244e-027   
     length 0.569339   
     axis 2.44611e-015 90 90   XYZ
    dof rx
    limits (0.0 90.0)
  end
  begin
     id 23
     name lthumb
     direction 0.707107 -6.34953e-011 0.707107   
     length 0.817461   
     axis -90 45 -1.62303e-014   XYZ
    dof rx rz
    limits (-45.0 45.0)
           (-45.0 45.0)
  end
  begin
     id 24 
     name rclavicle
     direction -0.905329 0.382405 -0.184787   
     length 3.30787  
     axis 0 0 0   XYZ 
    dof ry rz
    limits (-10.0 20.0)
           (-20.0 0.0)
  end
  begin
     id 25 
     name rhumerus
     direction -1 -4.48953e-011 -9.15316e-029  
     length 5.28721   
     axis 180 30 90   XYZ
    dof rx ry rz
    limits (-90.0 60.0)
           (-90.0 90.0)
           (-90.0 90.0)
  end
  begin
     id 26 
     name rradius
     direction -1 -4.48987e-011 9.37824e-028   
     length 3.50544   
     axis 180 30 90   XYZ
    dof rx
    limits (-10.0 170.0)
  end
  begin
     id 27 
     name rwrist
     direction -1 -4.48967e-011 -9.58414e-028   
     length 1.75272   
     axis 8.48502e-016 -90 -90   XYZ
    dof ry
    limits (-180.0 0.0)
  end
  begin
     id 28
     name rhand
     direction -1 -4.48904e-011 -1.91266e-027   
     length 0.884996   
     axis 1.22306e-015 -90 -90   XYZ
    dof rx rz
    limits (-90.0 90.0)
           (-45.0 45.0)
  end
  begin
     id 29
     name rfingers
     direction -1 -4.4909e-011 -3.85015e-027   
     length 0.713507   
     axis 2.44611e-015 -90 -90   XYZ
    dof rx
    limits (0.0 90.0)
  end
  begin
     id 30
     name rthumb
     direction -0.707107 -6.34853e-011 0.707107   
     length 1.02446   
     axis -90 -45 1.62303e-014   XYZ
    dof rx rz
    limits (-45.0 45.0)
           (-45.0 45.0)
  end
:hierarchy
  begin
    root lhipjoint rhipjoint lowerback
    lhipjoint lfemur
    lfemur ltibia
    ltibia lfoot
    lfoot ltoes
    rhipjoint rfemur
    rfemur rtibia
    rtibia rfoot
    rfoot rtoes
    lowerback upperback
    upperback thorax
    thorax lowerneck lclavicle rclavicle
    lowerneck upperneck
    upperneck head
    lclavicle lhumerus
    lhumerus lradius
    lradius lwrist
    lwrist lhand lthumb
    lhand lfingers
    rclavicle rhumerus
    rhumerus rradius
    rradius rwrist
    rwrist rhand rthumb
    rhand rfingers
  end

#!OML:ASF F:\twosubjects\two\Thursday\Session 1\justin.ASF
:FULLY-SPECIFIED
:DEGREES
196
root -0.375617 18.355 14.8311 -171.65 5.54465 177.93
lowerback 3.65522 -0.74793 3.84721
upperback 2.69296 -0.382974 5.91413
thorax 0.727537 0.0323112 3.96214
lowerneck -6.46939 -15.456 -17.3783
upperneck 30.3463 -19.3038 8.65143
head 14.1474 -8.83189 3.33848
rclavicle -2.38542e-015 -4.77083e-014
rhumerus -2.20427 -42.9078 -58.0138
rradius 29.2717
rwrist -22.2003
rhand -14.5558 13.8491
rfingers 7.12502
rthumb 11.5932 -15.8102
lclavicle -2.38542e-015 -4.77083e-014
lhumerus -37.5004 3.73607 82.0012
lradius 32.8436
lwrist -9.49594
lhand 1.65248 27.7427
lfingers 7.12502
lthumb 27.1722 55.8063
rfemur -30.4191 -9.7393 20.6629
rtibia 31.2574
rfoot -7.19298 -15.6422
rtoes 0.99453
lfemur -11.742 3.69094 -15.6119
ltibia 48.2383
lfoot 5.04054 -13.0428
ltoes -14.8366
197
root -0.360882 18.366 14.7595 -171.703 5.78978 177.893
lowerback 4.17854 -0.541859 4.03787
upperback 2.54642 -0.0345466 6.00779
thorax 0.268212 0.211746 3.94162
lowerneck -5.48089 -15.5798 -17.9574
upperneck 29.8742 -19.633 9.18843
head 13.9392 -9.01832 3.62544
rclavicle -9.54166e-015 2.8625e-014
rhumerus -2.96984 -42.8781 -56.8877
rradius 29.4028
rwrist -22.0378
rhand -14.4563 13.7451
rfingers 7.12502
rthumb 11.6891 -15.9088
lclavicle -9.54166e-015 2.8625e-014
lhumerus -37.7433 3.09482 82.5464
lradius 32.718
lwrist -9.60338
lhand 1.95856 28.0331
lfingers 7.12502
lthumb 27.465 56.0506
rfemur -30.1773 -9.71989 20.6355
rtibia 31.3136
rfoot -7.17572 -15.5916
rtoes 1.18013
lfemur -12.257 3.81209 -15.682
ltibia 48.8775
lfoot 3.74356 -11.5957
ltoes -14.7748
198
root -0.351559 18.3735 14.6881 -171.683 6.13264 177.69
lowerback 3.76904 -0.382914 4.39788
upperback 3.03041 0.126032 5.78369
thorax 0.991653 0.307096 3.50377
lowerneck -5.29576 -15.6806 -18.0196
upperneck 29.2142 -20.0269 9.85091
head 13.774 -9.17275 3.8124
rclavicle 2.46493e-014 3.97569e-014
rhumerus -2.40647 -43.3456 -57.2129
rradius 29.4713
rwrist -21.6526
rhand -14.2752 13.563
rfingers 7.12502
rthumb 11.8637 -16.0809
lclavicle 2.46493e-014 3.97569e-014
lhumerus -37.0302 2.39604 82.7285
lradius 32.7847
lwrist -9.45021
lhand 2.43324 28.5893
lfingers 7.12502
lthumb 27.9188 56.5338
rfemur -30.0516 -9.98934 20.4989
rtibia 31.3935
rfoot -7.60663 -15.1012
rtoes 0.806458
lfemur -12.8694 4.02846 -15.9752
ltibia 49.3986
lfoot 2.66449 -10.3709
ltoes -17.0423
199
root -0.336754 18.3885 14.6224 -171.686 6.43636 177.598
lowerback 3.75903 -0.346028 4.40081
upperback 3.30804 0.170259 5.76613
thorax 1.28313 0.339013 3.48614
lowerneck -6.12439 -15.7503 -17.5312
upperneck 29.4477 -20.0451 9.52363
head 13.9373 -9.13792 3.55405
rclavicle 7.15625e-015 0
rhumerus -1.94625 -43.2474 -57.4234
rradius 29.5461
rwrist -21.6066
rhand -13.2582 13.3186
rfingers 7.12502
rthumb 12.8443 -16.2662
lclavicle 7.15625e-015 0
lhumerus -36.7678 2.26567 82.8043
lradius 32.9501
lwrist -9.43442
lhand 2.58545 28.6806
lfingers 7.12502
lthumb 28.0644 56.6014
rfemur -29.8795 -9.99163 20.4465
rtibia 31.4506
rfoot -8.0943 -14.8493
rtoes 0.556113
lfemur -13.4408 4.18048 -16.0503
ltibia 49.7966
lfoot 2.76104 -8.4914
ltoes -13.9436
200
root -0.321882 18.4123 14.5641 -171.713 6.5237 177.695
lowerback 4.11148 -0.314006 4.53201
upperback 3.24504 0.271099 5.89832
thorax 1.01734 0.396425 3.54544
lowerneck -6.11125 -15.7499 -17.414
upperneck 29.5446 -20.0039 9.38061
head 13.9347 -9.11445 3.4946
rclavicle -1.03368e-014 -3.18055e-014
rhumerus -2.206 -43.146 -56.8864
rradius 29.5783
rwrist -21.6317
rhand -12.1846 13.058
rfingers 7.12502
rthumb 13.8791 -16.4589
lclavicle -1.03368e-014 -3.18055e-014
lhumerus -37.0017 2.0327 82.9879
lradius 33.0919
lwrist -9.48966
lhand 2.76229 28.821
lfingers 7.12502
lthumb 28.2334 56.7141
rfemur -29.6575 -9.95532 20.5577
rtibia 31.4648
rfoot -8.31519 -14.81
rtoes 0.669936
lfemur -13.9573 4.16006 -15.8827
ltibia 50.0523
lfoot 2.68923 -6.40605
ltoes -9.34875
